<svg width="1341" height="777" viewBox="0 0 1341 777" fill="none" xmlns="http://www.w3.org/2000/svg">
<rect x="27" y="149" width="1314" height="564" fill="#EDF2FA"/>
<path d="M32.8006 179.029C14.6848 117.858 51.6034 52.9863 115.261 34.1344C178.918 15.2825 245.208 49.5892 263.324 110.761C281.439 171.932 244.521 236.804 180.864 255.656C117.206 274.507 50.9163 240.201 32.8006 179.029Z" fill="url(#paint0_linear_1649_27)"/>
<g filter="url(#filter0_f_1649_27)">
<ellipse cx="1154" cy="617" rx="158" ry="152" fill="url(#paint1_linear_1649_27)"/>
</g>
<g filter="url(#filter1_ii_1649_27)">
<rect x="870.094" y="148" width="128.944" height="668.134" rx="64.472" transform="rotate(44.9427 870.094 148)" fill="#51A2D9"/>
</g>
<g filter="url(#filter2_i_1649_27)">
<rect x="606.992" y="252.588" width="128.944" height="295.861" rx="64.472" transform="rotate(44.9427 606.992 252.588)" fill="#3F8DE4"/>
</g>
<g filter="url(#filter3_ii_1649_27)">
<rect x="856.992" y="327" width="128.944" height="295.861" rx="64.472" transform="rotate(44.9427 856.992 327)" fill="#3F8DE4"/>
</g>
<g filter="url(#filter4_i_1649_27)">
<ellipse cx="906" cy="513.5" rx="47" ry="46.5" fill="#FFC559"/>
</g>
<g filter="url(#filter5_i_1649_27)">
<ellipse cx="459" cy="326.5" rx="47" ry="46.5" fill="#FFC559"/>
</g>
<path d="M673.603 365.81H644.859V463.748H616.901V365.81H588V341.8H673.603V365.81Z" fill="black"/>
<path d="M760.23 423.674L782.062 435.938C777.246 445.266 770.806 452.866 762.743 458.738C754.68 464.496 745.204 467.375 734.313 467.375C719.13 467.375 706.46 461.617 696.303 450.102C686.25 438.471 681.224 422.638 681.224 402.601C681.224 384.407 686.303 369.091 696.46 356.655C706.617 344.218 719.444 338 734.942 338C744.994 338 754.314 340.936 762.9 346.809C771.487 352.682 777.769 360.282 781.748 369.61L759.759 381.701C758.502 376.864 755.623 372.546 751.12 368.746C746.617 364.946 741.643 363.046 736.198 363.046C727.612 363.046 720.91 366.788 716.093 374.273C711.277 381.758 708.868 390.913 708.868 401.737C708.868 414.52 711.434 424.423 716.565 431.447C721.8 438.356 728.345 441.811 736.198 441.811C739.549 441.811 742.586 441.293 745.308 440.256C748.031 439.105 750.387 437.435 752.376 435.247C754.366 432.944 755.832 431.102 756.774 429.72C757.717 428.223 758.869 426.208 760.23 423.674Z" fill="black"/>
<g filter="url(#filter6_b_1649_27)">
<circle cx="684.5" cy="402.5" r="165" stroke="black" stroke-width="15"/>
</g>
<defs>
<filter id="filter0_f_1649_27" x="988" y="457" width="332" height="320" filterUnits="userSpaceOnUse" color-interpolation-filters="sRGB">
<feFlood flood-opacity="0" result="BackgroundImageFix"/>
<feBlend mode="normal" in="SourceGraphic" in2="BackgroundImageFix" result="shape"/>
<feGaussianBlur stdDeviation="4" result="effect1_foregroundBlur_1649_27"/>
</filter>
<filter id="filter1_ii_1649_27" x="424.828" y="172.705" width="536.828" height="516.59" filterUnits="userSpaceOnUse" color-interpolation-filters="sRGB">
<feFlood flood-opacity="0" result="BackgroundImageFix"/>
<feBlend mode="normal" in="SourceGraphic" in2="BackgroundImageFix" result="shape"/>
<feColorMatrix in="SourceAlpha" type="matrix" values="0 0 0 0 0 0 0 0 0 0 0 0 0 0 0 0 0 0 127 0" result="hardAlpha"/>
<feOffset dx="27" dy="-2"/>
<feGaussianBlur stdDeviation="22"/>
<feComposite in2="hardAlpha" operator="arithmetic" k2="-1" k3="1"/>
<feColorMatrix type="matrix" values="0 0 0 0 0.196875 0 0 0 0 0.414637 0 0 0 0 0.5625 0 0 0 1 0"/>
<feBlend mode="normal" in2="shape" result="effect1_innerShadow_1649_27"/>
<feColorMatrix in="SourceAlpha" type="matrix" values="0 0 0 0 0 0 0 0 0 0 0 0 0 0 0 0 0 0 127 0" result="hardAlpha"/>
<feOffset dx="6" dy="4"/>
<feGaussianBlur stdDeviation="8"/>
<feComposite in2="hardAlpha" operator="arithmetic" k2="-1" k3="1"/>
<feColorMatrix type="matrix" values="0 0 0 0 0.373437 0 0 0 0 0.746875 0 0 0 0 0.995833 0 0 0 1 0"/>
<feBlend mode="normal" in2="effect1_innerShadow_1649_27" result="effect2_innerShadow_1649_27"/>
</filter>
<filter id="filter2_i_1649_27" x="424.703" y="279.293" width="246.852" height="292.09" filterUnits="userSpaceOnUse" color-interpolation-filters="sRGB">
<feFlood flood-opacity="0" result="BackgroundImageFix"/>
<feBlend mode="normal" in="SourceGraphic" in2="BackgroundImageFix" result="shape"/>
<feColorMatrix in="SourceAlpha" type="matrix" values="0 0 0 0 0 0 0 0 0 0 0 0 0 0 0 0 0 0 127 0" result="hardAlpha"/>
<feOffset dy="56"/>
<feGaussianBlur stdDeviation="22.5"/>
<feComposite in2="hardAlpha" operator="arithmetic" k2="-1" k3="1"/>
<feColorMatrix type="matrix" values="0 0 0 0 0.114444 0 0 0 0 0.263222 0 0 0 0 0.429167 0 0 0 1 0"/>
<feBlend mode="normal" in2="shape" result="effect1_innerShadow_1649_27"/>
</filter>
<filter id="filter3_ii_1649_27" x="650.703" y="293.705" width="270.852" height="352.09" filterUnits="userSpaceOnUse" color-interpolation-filters="sRGB">
<feFlood flood-opacity="0" result="BackgroundImageFix"/>
<feBlend mode="normal" in="SourceGraphic" in2="BackgroundImageFix" result="shape"/>
<feColorMatrix in="SourceAlpha" type="matrix" values="0 0 0 0 0 0 0 0 0 0 0 0 0 0 0 0 0 0 127 0" result="hardAlpha"/>
<feOffset dy="56"/>
<feGaussianBlur stdDeviation="22.5"/>
<feComposite in2="hardAlpha" operator="arithmetic" k2="-1" k3="1"/>
<feColorMatrix type="matrix" values="0 0 0 0 0.114444 0 0 0 0 0.263222 0 0 0 0 0.429167 0 0 0 1 0"/>
<feBlend mode="normal" in2="shape" result="effect1_innerShadow_1649_27"/>
<feColorMatrix in="SourceAlpha" type="matrix" values="0 0 0 0 0 0 0 0 0 0 0 0 0 0 0 0 0 0 127 0" result="hardAlpha"/>
<feOffset dx="-24" dy="-60"/>
<feGaussianBlur stdDeviation="35.5"/>
<feComposite in2="hardAlpha" operator="arithmetic" k2="-1" k3="1"/>
<feColorMatrix type="matrix" values="0 0 0 0 0.279792 0 0 0 0 0.615022 0 0 0 0 0.9875 0 0 0 1 0"/>
<feBlend mode="normal" in2="effect1_innerShadow_1649_27" result="effect2_innerShadow_1649_27"/>
</filter>
<filter id="filter4_i_1649_27" x="859" y="467" width="94" height="95" filterUnits="userSpaceOnUse" color-interpolation-filters="sRGB">
<feFlood flood-opacity="0" result="BackgroundImageFix"/>
<feBlend mode="normal" in="SourceGraphic" in2="BackgroundImageFix" result="shape"/>
<feColorMatrix in="SourceAlpha" type="matrix" values="0 0 0 0 0 0 0 0 0 0 0 0 0 0 0 0 0 0 127 0" result="hardAlpha"/>
<feOffset dy="2"/>
<feGaussianBlur stdDeviation="17.5"/>
<feComposite in2="hardAlpha" operator="arithmetic" k2="-1" k3="1"/>
<feColorMatrix type="matrix" values="0 0 0 0 0.479167 0 0 0 0 0.355852 0 0 0 0 0.129774 0 0 0 1 0"/>
<feBlend mode="normal" in2="shape" result="effect1_innerShadow_1649_27"/>
</filter>
<filter id="filter5_i_1649_27" x="412" y="280" width="94" height="95" filterUnits="userSpaceOnUse" color-interpolation-filters="sRGB">
<feFlood flood-opacity="0" result="BackgroundImageFix"/>
<feBlend mode="normal" in="SourceGraphic" in2="BackgroundImageFix" result="shape"/>
<feColorMatrix in="SourceAlpha" type="matrix" values="0 0 0 0 0 0 0 0 0 0 0 0 0 0 0 0 0 0 127 0" result="hardAlpha"/>
<feOffset dy="2"/>
<feGaussianBlur stdDeviation="17.5"/>
<feComposite in2="hardAlpha" operator="arithmetic" k2="-1" k3="1"/>
<feColorMatrix type="matrix" values="0 0 0 0 0.479167 0 0 0 0 0.355852 0 0 0 0 0.129774 0 0 0 1 0"/>
<feBlend mode="normal" in2="shape" result="effect1_innerShadow_1649_27"/>
</filter>
<filter id="filter6_b_1649_27" x="501" y="219" width="367" height="367" filterUnits="userSpaceOnUse" color-interpolation-filters="sRGB">
<feFlood flood-opacity="0" result="BackgroundImageFix"/>
<feGaussianBlur in="BackgroundImageFix" stdDeviation="5.5"/>
<feComposite in2="SourceAlpha" operator="in" result="effect1_backgroundBlur_1649_27"/>
<feBlend mode="normal" in="SourceGraphic" in2="effect1_backgroundBlur_1649_27" result="shape"/>
</filter>
<linearGradient id="paint0_linear_1649_27" x1="50.5065" y1="95.3009" x2="206.024" y2="204.898" gradientUnits="userSpaceOnUse">
<stop offset="0.147162" stop-color="#F2F5FE"/>
<stop offset="0.714163" stop-color="#F3F4FB" stop-opacity="0.618304"/>
<stop offset="1" stop-color="white" stop-opacity="0.79"/>
</linearGradient>
<linearGradient id="paint1_linear_1649_27" x1="1023.5" y1="583.5" x2="1275.97" y2="646.605" gradientUnits="userSpaceOnUse">
<stop stop-color="#E9ECFF"/>
<stop offset="0.9167" stop-color="white"/>
</linearGradient>
</defs>
</svg>
