<svg width="286" height="73" viewBox="0 0 286 73" fill="none" xmlns="http://www.w3.org/2000/svg">
<path d="M111.897 28.8037H105.552V49.243H99.3801V28.8037H93V23.7931H111.897V28.8037Z" fill="white"/>
<path d="M113.007 36.4099C113.007 35.2083 113.134 34.0067 113.388 32.8051C113.666 31.5794 114.116 30.3778 114.741 29.2003C115.365 27.9987 116.127 26.9533 117.029 26.0641C117.931 25.1509 119.075 24.4179 120.462 23.8652C121.849 23.2884 123.398 23 125.108 23C127.235 23 129.119 23.4206 130.76 24.2617C132.424 25.1028 133.73 26.2203 134.678 27.6142C135.626 28.984 136.331 30.4499 136.793 32.012C137.279 33.5501 137.521 35.1121 137.521 36.6983C137.521 39.0294 137.048 41.1923 136.1 43.1869C135.175 45.1575 133.754 46.7917 131.835 48.0895C129.916 49.3632 127.697 50 125.177 50C122.588 50 120.346 49.3511 118.451 48.0534C116.578 46.7316 115.203 45.0614 114.324 43.0427C113.446 41.024 113.007 38.8131 113.007 36.4099ZM119.04 36.3378C119.04 37.7797 119.237 39.1015 119.63 40.3031C120.023 41.5047 120.704 42.526 121.675 43.3672C122.646 44.1842 123.825 44.5928 125.212 44.5928C126.645 44.5928 127.847 44.1602 128.818 43.2951C129.789 42.4299 130.46 41.4326 130.829 40.3031C131.199 39.1495 131.384 37.9239 131.384 36.6262C131.384 34.1749 130.852 32.1802 129.789 30.6422C128.749 29.1041 127.189 28.3351 125.108 28.3351C123.999 28.3351 123.028 28.5874 122.195 29.0921C121.386 29.5968 120.762 30.2577 120.323 31.0748C119.884 31.8919 119.56 32.745 119.352 33.6342C119.144 34.4993 119.04 35.4005 119.04 36.3378Z" fill="white"/>
<path d="M141.335 23.7931H153.471C159.366 23.7931 162.313 26.6889 162.313 32.4806C162.313 34.0187 162.013 35.3645 161.412 36.518C160.811 37.6475 160.013 38.5247 159.019 39.1495C158.025 39.7503 156.974 40.1949 155.864 40.4833C154.777 40.7717 153.633 40.9159 152.431 40.9159H147.473V49.243H141.335V23.7931ZM147.473 28.4793V36.1936H151.495C153.044 36.1936 154.211 35.9172 154.997 35.3645C155.806 34.7877 156.211 33.7303 156.211 32.1923C156.211 31.4953 156.095 30.9065 155.864 30.4259C155.633 29.9212 155.367 29.5487 155.066 29.3084C154.789 29.0441 154.396 28.8518 153.887 28.7316C153.379 28.6115 152.963 28.5394 152.639 28.5154C152.339 28.4913 151.923 28.4793 151.391 28.4793H147.473Z" fill="white"/>
<path d="M191.803 40.8798L196.622 43.4393C195.559 45.3858 194.137 46.972 192.358 48.1976C190.578 49.3992 188.486 50 186.081 50C182.73 50 179.933 48.7984 177.69 46.3952C175.471 43.968 174.362 40.6636 174.362 36.482C174.362 32.6849 175.483 29.4887 177.725 26.8932C179.967 24.2977 182.799 23 186.22 23C188.439 23 190.497 23.6128 192.392 24.8385C194.288 26.0641 195.675 27.6502 196.553 29.5968L191.699 32.1202C191.421 31.1108 190.786 30.2096 189.792 29.4166C188.798 28.6235 187.7 28.227 186.498 28.227C184.602 28.227 183.123 29.008 182.059 30.5701C180.996 32.1322 180.464 34.0427 180.464 36.3017C180.464 38.9693 181.031 41.0361 182.163 42.502C183.319 43.9439 184.764 44.6649 186.498 44.6649C187.237 44.6649 187.908 44.5567 188.509 44.3405C189.11 44.1001 189.63 43.7517 190.069 43.2951C190.508 42.8144 190.832 42.4299 191.04 42.1415C191.248 41.8291 191.502 41.4085 191.803 40.8798Z" fill="white"/>
<path d="M215.386 49.243H199.714V23.7931H205.816V43.8718H215.386V49.243Z" fill="white"/>
<path d="M218.507 49.243V23.7931H236.607V28.7316H224.609V33.3458H235.809V38.1762H224.609V44.2323H237.682V49.243H218.507Z" fill="white"/>
<path d="M263.011 49.243H256.492L255.278 45.1696H246.263L245.049 49.243H238.531L247.615 23.7931H253.995L263.011 49.243ZM253.891 40.5915L250.701 29.8491L247.685 40.5915H253.891Z" fill="white"/>
<path d="M286 49.243H280.001L271.333 34.0307V49.243H265.438V23.7931H271.437L280.14 39.2937V23.7931H286V49.243Z" fill="white"/>
<path d="M33.3815 28.9822H27.4244V49.2795H21.6302V28.9822H15.6406V24.0063H33.3815V28.9822Z" fill="white"/>
<path d="M51.3346 40.9744L55.8594 43.5161C54.8611 45.4491 53.5265 47.0242 51.8555 48.2414C50.1845 49.4346 48.2205 50.0312 45.9636 50.0312C42.8169 50.0312 40.191 48.838 38.086 46.4515C36.0027 44.0411 34.961 40.7596 34.961 36.6071C34.961 32.8364 36.0135 29.6623 38.1185 27.0849C40.2236 24.5075 42.882 23.2188 46.0938 23.2188C48.1771 23.2188 50.1085 23.8273 51.888 25.0444C53.6675 26.2616 54.9696 27.8367 55.7943 29.7697L51.237 32.2756C50.9766 31.2732 50.3798 30.3783 49.4466 29.5907C48.5135 28.8032 47.4827 28.4094 46.3542 28.4094C44.5747 28.4094 43.1858 29.185 42.1875 30.7363C41.1893 32.2875 40.6901 34.1848 40.6901 36.4281C40.6901 39.0771 41.2218 41.1295 42.2852 42.5853C43.3703 44.0172 44.7266 44.7332 46.3542 44.7332C47.0486 44.7332 47.678 44.6258 48.2422 44.411C48.8064 44.1724 49.2947 43.8263 49.707 43.3729C50.1194 42.8956 50.4232 42.5137 50.6185 42.2273C50.8138 41.9171 51.0525 41.4995 51.3346 40.9744Z" fill="white"/>
<circle cx="35.75" cy="36.625" r="33.25" stroke="white" stroke-width="5"/>
</svg>
