<svg width="110" height="28" viewBox="0 0 110 28" fill="none" xmlns="http://www.w3.org/2000/svg">
<path d="M43.3302 10.8105H40.9004V18.6171H38.5369V10.8105H36.0938V8.89665H43.3302V10.8105Z" fill="white"/>
<path d="M43.755 13.7156C43.755 13.2566 43.8037 12.7977 43.9011 12.3387C44.0073 11.8706 44.1799 11.4117 44.4189 10.9619C44.6579 10.503 44.95 10.1037 45.2953 9.76406C45.6405 9.41526 46.0787 9.13531 46.6098 8.92419C47.1409 8.7039 47.734 8.59375 48.389 8.59375C49.2034 8.59375 49.9249 8.75438 50.5533 9.07564C51.1907 9.3969 51.6908 9.82372 52.0538 10.3561C52.4167 10.8793 52.6867 11.4392 52.8637 12.0358C53.0496 12.6233 53.1425 13.2199 53.1425 13.8257C53.1425 14.7161 52.9611 15.5422 52.5981 16.304C52.2441 17.0567 51.6997 17.6809 50.965 18.1765C50.2302 18.663 49.3805 18.9062 48.4156 18.9062C47.4242 18.9062 46.5655 18.6584 45.8397 18.1628C45.1227 17.6579 44.596 17.02 44.2596 16.249C43.9232 15.4779 43.755 14.6335 43.755 13.7156ZM46.0654 13.688C46.0654 14.2388 46.1406 14.7436 46.2911 15.2026C46.4416 15.6615 46.7027 16.0516 47.0745 16.3729C47.4463 16.685 47.8978 16.841 48.4289 16.841C48.9777 16.841 49.438 16.6758 49.8098 16.3453C50.1816 16.0149 50.4383 15.634 50.5799 15.2026C50.7215 14.762 50.7923 14.2939 50.7923 13.7982C50.7923 12.8619 50.5888 12.1001 50.1816 11.5126C49.7832 10.9252 49.1857 10.6315 48.389 10.6315C47.9641 10.6315 47.5924 10.7278 47.2737 10.9206C46.9639 11.1134 46.7249 11.3658 46.5567 11.6779C46.3885 11.9899 46.2646 12.3158 46.1849 12.6554C46.1052 12.9859 46.0654 13.3301 46.0654 13.688Z" fill="white"/>
<path d="M54.603 8.89665H59.2503C61.5076 8.89665 62.6362 10.0027 62.6362 12.2148C62.6362 12.8023 62.5211 13.3163 62.291 13.7569C62.0608 14.1883 61.7554 14.5233 61.3748 14.762C60.9941 14.9914 60.5914 15.1613 60.1665 15.2714C59.7504 15.3816 59.3123 15.4366 58.852 15.4366H56.9532V18.6171H54.603V8.89665ZM56.9532 10.6865V13.633H58.4935C59.0865 13.633 59.5336 13.5274 59.8345 13.3163C60.1444 13.096 60.2993 12.6921 60.2993 12.1047C60.2993 11.8385 60.255 11.6136 60.1665 11.43C60.078 11.2373 59.9762 11.095 59.8611 11.0032C59.7549 10.9022 59.6044 10.8288 59.4096 10.7829C59.2149 10.737 59.0556 10.7095 58.9316 10.7003C58.8166 10.6911 58.6572 10.6865 58.4536 10.6865H56.9532Z" fill="white"/>
<path d="M73.9287 15.4229L75.7743 16.4004C75.3671 17.1439 74.8227 17.7497 74.1411 18.2178C73.4595 18.6768 72.6584 18.9062 71.7378 18.9062C70.4543 18.9062 69.3832 18.4473 68.5245 17.5294C67.6747 16.6023 67.2499 15.3402 67.2499 13.7431C67.2499 12.2928 67.6792 11.0721 68.5378 10.0807C69.3965 9.08941 70.4808 8.59375 71.7909 8.59375C72.6407 8.59375 73.4285 8.82781 74.1544 9.29594C74.8802 9.76406 75.4114 10.3699 75.7477 11.1134L73.8888 12.0771C73.7826 11.6916 73.5392 11.3474 73.1585 11.0445C72.7779 10.7416 72.3574 10.5902 71.8971 10.5902C71.1713 10.5902 70.6047 10.8885 70.1976 11.4851C69.7904 12.0817 69.5868 12.8115 69.5868 13.6743C69.5868 14.6931 69.8036 15.4825 70.2374 16.0424C70.68 16.5932 71.2332 16.8685 71.8971 16.8685C72.1804 16.8685 72.4371 16.8272 72.6673 16.7446C72.8974 16.6528 73.0966 16.5197 73.2648 16.3453C73.433 16.1618 73.5569 16.0149 73.6365 15.9047C73.7162 15.7854 73.8136 15.6248 73.9287 15.4229Z" fill="white"/>
<path d="M82.9596 18.6171H76.958V8.89665H79.2949V16.5656H82.9596V18.6171Z" fill="white"/>
<path d="M84.1546 18.6171V8.89665H91.0857V10.7829H86.4915V12.5453H90.7803V14.3902H86.4915V16.7033H91.4973V18.6171H84.1546Z" fill="white"/>
<path d="M101.197 18.6171H98.7004L98.2356 17.0613H94.7834L94.3186 18.6171H91.8224L95.3012 8.89665H97.7443L101.197 18.6171ZM97.7045 15.3127L96.4829 11.2097L95.3278 15.3127H97.7045Z" fill="white"/>
<path d="M110 18.6171H107.703L104.383 12.8069V18.6171H102.126V8.89665H104.423L107.756 14.817V8.89665H110V18.6171Z" fill="white"/>
<path d="M12.839 10.8105H10.5479V18.6171H8.3193V10.8105H6.01562V8.89665H12.839V10.8105Z" fill="white"/>
<path d="M19.7441 15.4229L21.4844 16.4004C21.1004 17.1439 20.5871 17.7497 19.9444 18.2178C19.3017 18.6768 18.5463 18.9062 17.6783 18.9062C16.468 18.9062 15.4581 18.4473 14.6485 17.5294C13.8472 16.6023 13.4465 15.3402 13.4465 13.7431C13.4465 12.2928 13.8513 11.0721 14.661 10.0807C15.4706 9.08941 16.4931 8.59375 17.7284 8.59375C18.5297 8.59375 19.2725 8.82781 19.9569 9.29594C20.6414 9.76406 21.1422 10.3699 21.4593 11.1134L19.7065 12.0771C19.6064 11.6916 19.3768 11.3474 19.0179 11.0445C18.659 10.7416 18.2626 10.5902 17.8285 10.5902C17.1441 10.5902 16.6099 10.8885 16.226 11.4851C15.842 12.0817 15.6501 12.8115 15.6501 13.6743C15.6501 14.6931 15.8545 15.4825 16.2635 16.0424C16.6809 16.5932 17.2025 16.8685 17.8285 16.8685C18.0956 16.8685 18.3377 16.8272 18.5547 16.7446C18.7717 16.6528 18.9595 16.5197 19.1181 16.3453C19.2767 16.1618 19.3935 16.0149 19.4687 15.9047C19.5438 15.7854 19.6356 15.6248 19.7441 15.4229Z" fill="white"/>
<circle cx="13.75" cy="13.75" r="12.75" stroke="white" stroke-width="2"/>
</svg>
