<svg width="70" height="70" viewBox="0 0 70 70" fill="none" xmlns="http://www.w3.org/2000/svg">
<path d="M32.6812 27.5175H26.8491V47.389H21.1764V27.5175H15.3125V22.646H32.6812V27.5175Z" fill="white"/>
<path d="M50.2577 39.2582L54.6875 41.7465C53.7102 43.639 52.4035 45.1811 50.7676 46.3727C49.1317 47.5409 47.2089 48.125 44.9993 48.125C41.9186 48.125 39.3478 46.9568 37.287 44.6203C35.2474 42.2605 34.2275 39.0479 34.2275 34.9825C34.2275 31.2909 35.258 28.1834 37.3188 25.66C39.3797 23.1367 41.9824 21.875 45.1268 21.875C47.1664 21.875 49.0573 22.4708 50.7995 23.6624C52.5416 24.854 53.8164 26.396 54.6238 28.2886L50.1621 30.7418C49.9071 29.7605 49.3229 28.8843 48.4093 28.1133C47.4957 27.3423 46.4865 26.9568 45.3817 26.9568C43.6395 26.9568 42.2798 27.7161 41.3025 29.2348C40.3252 30.7535 39.8365 32.611 39.8365 34.8072C39.8365 37.4007 40.357 39.41 41.3981 40.8353C42.4604 42.2372 43.7883 42.9381 45.3817 42.9381C46.0616 42.9381 46.6777 42.8329 47.2301 42.6227C47.7825 42.389 48.2606 42.0502 48.6642 41.6063C49.0679 41.139 49.3654 40.7652 49.5566 40.4848C49.7478 40.1811 49.9815 39.7722 50.2577 39.2582Z" fill="white"/>
<circle cx="35" cy="35" r="34" stroke="white" stroke-width="2"/>
</svg>
