<svg width="32" height="32" viewBox="0 0 32 32" fill="none" xmlns="http://www.w3.org/2000/svg">
<path d="M14.94 12.5794H12.2739V21.6636H9.68065V12.5794H7V10.3525H14.94V12.5794Z" fill="black"/>
<path d="M22.9749 17.9466L25 19.0841C24.5532 19.9493 23.9559 20.6542 23.208 21.1989C22.4602 21.733 21.5812 22 20.5711 22C19.1628 22 17.9876 21.466 17.0455 20.3979C16.1131 19.3191 15.6469 17.8505 15.6469 15.992C15.6469 14.3044 16.1179 12.8838 17.06 11.7303C18.0022 10.5768 19.1919 10 20.6294 10C21.5618 10 22.4262 10.2724 23.2226 10.8171C24.019 11.3618 24.6018 12.0668 24.9709 12.9319L22.9312 14.0534C22.8147 13.6048 22.5476 13.2043 22.13 12.8518C21.7123 12.4993 21.251 12.3231 20.7459 12.3231C19.9495 12.3231 19.3279 12.6702 18.8811 13.3645C18.4344 14.0587 18.211 14.9079 18.211 15.9119C18.211 17.0975 18.4489 18.016 18.9248 18.6676C19.4105 19.3084 20.0175 19.6288 20.7459 19.6288C21.0567 19.6288 21.3384 19.5808 21.5909 19.4846C21.8434 19.3778 22.062 19.223 22.2465 19.02C22.431 18.8064 22.567 18.6355 22.6544 18.5073C22.7418 18.3685 22.8487 18.1816 22.9749 17.9466Z" fill="black"/>
<circle cx="16" cy="16" r="15" stroke="black" stroke-width="2"/>
</svg>
