<svg width="86" height="12" viewBox="0 0 86 12" fill="none" xmlns="http://www.w3.org/2000/svg">
<path d="M8.42064 2.57944H5.59316V11.6636H2.84293V2.57944H0V0.35247H8.42064V2.57944Z" fill="black"/>
<path d="M8.91494 5.95995C8.91494 5.4259 8.97159 4.89186 9.0849 4.35781C9.2085 3.81308 9.40936 3.27904 9.68748 2.75567C9.96559 2.22163 10.3055 1.75701 10.7072 1.36182C11.1089 0.955941 11.6188 0.630173 12.2368 0.384512C12.8549 0.128171 13.545 0 14.3072 0C15.2549 0 16.0944 0.186916 16.8257 0.560748C17.5673 0.934579 18.1493 1.43124 18.5716 2.05073C18.994 2.65955 19.3081 3.31108 19.5141 4.00534C19.7304 4.68892 19.8386 5.38318 19.8386 6.08812C19.8386 7.12417 19.6274 8.08545 19.2051 8.97196C18.7931 9.8478 18.1596 10.5741 17.3047 11.1509C16.4497 11.717 15.4609 12 14.3381 12C13.1845 12 12.1853 11.7116 11.3407 11.1348C10.5064 10.5474 9.89349 9.80507 9.50207 8.90788C9.11065 8.01068 8.91494 7.02804 8.91494 5.95995ZM11.6034 5.9279C11.6034 6.56876 11.6909 7.15621 11.866 7.69025C12.0411 8.2243 12.345 8.67824 12.7776 9.05207C13.2102 9.41522 13.7356 9.5968 14.3536 9.5968C14.9922 9.5968 15.5278 9.40454 15.9605 9.02003C16.3931 8.63551 16.6918 8.19226 16.8566 7.69025C17.0214 7.17757 17.1038 6.63284 17.1038 6.05608C17.1038 4.96662 16.8669 4.08011 16.3931 3.39653C15.9296 2.71295 15.2343 2.37116 14.3072 2.37116C13.8128 2.37116 13.3802 2.48331 13.0094 2.70761C12.6489 2.93191 12.3708 3.22563 12.175 3.58879C11.9793 3.95194 11.8351 4.33111 11.7424 4.7263C11.6497 5.11081 11.6034 5.51135 11.6034 5.9279Z" fill="black"/>
<path d="M21.5381 0.35247H26.9458C29.5724 0.35247 30.8857 1.63952 30.8857 4.21362C30.8857 4.8972 30.7518 5.49533 30.484 6.00801C30.2162 6.51001 29.8608 6.89987 29.4179 7.17757C28.975 7.44459 28.5063 7.64219 28.0119 7.77036C27.5278 7.89853 27.0179 7.96262 26.4823 7.96262H24.2728V11.6636H21.5381V0.35247ZM24.2728 2.43525V5.86382H26.0651C26.7552 5.86382 27.2754 5.74099 27.6256 5.49533C27.9862 5.23899 28.1664 4.76903 28.1664 4.08545C28.1664 3.7757 28.1149 3.51402 28.0119 3.3004C27.9089 3.0761 27.7904 2.91055 27.6565 2.80374C27.5329 2.68625 27.3578 2.6008 27.1312 2.5474C26.9046 2.49399 26.7192 2.46195 26.575 2.45127C26.4411 2.44059 26.2557 2.43525 26.0188 2.43525H24.2728Z" fill="black"/>
<path d="M44.0261 7.9466L46.1737 9.08411C45.6999 9.94927 45.0664 10.6542 44.2733 11.1989C43.4802 11.733 42.548 12 41.4767 12C39.9832 12 38.7368 11.466 37.7376 10.3979C36.7488 9.31909 36.2544 7.85047 36.2544 5.99199C36.2544 4.30441 36.754 2.88385 37.7531 1.73031C38.7522 0.576769 40.014 0 41.5385 0C42.5274 0 43.4441 0.272363 44.2887 0.817089C45.1334 1.36182 45.7514 2.06676 46.1428 2.93191L43.9797 4.05341C43.8561 3.60481 43.5729 3.20427 43.1299 2.8518C42.687 2.49933 42.1978 2.3231 41.6621 2.3231C40.8175 2.3231 40.1583 2.67023 39.6844 3.36449C39.2106 4.05875 38.9737 4.90788 38.9737 5.91188C38.9737 7.09746 39.2261 8.01602 39.7308 8.66756C40.2458 9.30841 40.8896 9.62884 41.6621 9.62884C41.9917 9.62884 42.2905 9.58078 42.5583 9.48465C42.8261 9.37784 43.0578 9.22296 43.2536 9.02003C43.4493 8.80641 43.5935 8.63551 43.6862 8.50734C43.7789 8.36849 43.8922 8.18157 44.0261 7.9466Z" fill="black"/>
<path d="M54.5349 11.6636H47.5511V0.35247H50.2705V9.27637H54.5349V11.6636Z" fill="black"/>
<path d="M55.9253 11.6636V0.35247H63.9906V2.5474H58.6446V4.59813H63.6352V6.74499H58.6446V9.43658H64.4696V11.6636H55.9253Z" fill="black"/>
<path d="M75.7561 11.6636H72.8513L72.3106 9.85314H68.2934L67.7526 11.6636H64.8479L68.8959 0.35247H71.7389L75.7561 11.6636ZM71.6925 7.81843L70.2711 3.04406L68.9268 7.81843H71.6925Z" fill="black"/>
<path d="M86 11.6636H83.327L79.4644 4.90254V11.6636H76.8377V0.35247H79.5107L83.3888 7.24165V0.35247H86V11.6636Z" fill="black"/>
</svg>
